<?xml version="1.0" encoding="UTF-8" standalone="no"?>
<!-- Created with Inkscape (http://www.inkscape.org/) -->

<svg
   width="24.837999mm"
   height="27.792mm"
   viewBox="0 0 24.837999 27.792"
   version="1.1"
   id="svg1"
   inkscape:version="1.4.2 (ebf0e94, 2025-05-08)"
   sodipodi:docname="ilmenau-logo.svg"
   xmlns:inkscape="http://www.inkscape.org/namespaces/inkscape"
   xmlns:sodipodi="http://sodipodi.sourceforge.net/DTD/sodipodi-0.dtd"
   xmlns="http://www.w3.org/2000/svg"
   xmlns:svg="http://www.w3.org/2000/svg">
  <sodipodi:namedview
     id="namedview1"
     pagecolor="#ffffff"
     bordercolor="#000000"
     borderopacity="0.25"
     inkscape:showpageshadow="2"
     inkscape:pageopacity="0.0"
     inkscape:pagecheckerboard="0"
     inkscape:deskcolor="#d1d1d1"
     inkscape:document-units="mm"
     inkscape:zoom="0.72604517"
     inkscape:cx="396.66953"
     inkscape:cy="561.25984"
     inkscape:window-width="1920"
     inkscape:window-height="1017"
     inkscape:window-x="1912"
     inkscape:window-y="-8"
     inkscape:window-maximized="1"
     inkscape:current-layer="layer1" />
  <defs
     id="defs1" />
  <g
     inkscape:label="Ebene 1"
     inkscape:groupmode="layer"
     id="layer1">
    <path
       d="m 0,0 v 24.161898 h 0.0804 c 3.53775,-2.199763 6.47647,-3.070248 11.33025,-2.612246 4.87786,0.460113 9.00642,2.500856 13.42734,6.242348 V 0 Z m 21.51115,7.990465 c 0.4535,-0.582351 0.93134,-1.209682 1.51554,-1.649423 0.0889,0.137584 0.11562,0.359306 0.22013,0.514353 -0.20003,0.201878 -0.35507,0.422013 -0.56092,0.662785 -0.27728,0.325704 -0.50324,0.767033 -0.77629,1.080305 -0.30929,0.354542 -0.63473,0.248181 -1.03108,0.345542 -0.28257,0.0688 -0.50482,0.0921 -0.77761,0.0444 C 20.01202,8.696325 19.92947,8.299453 19.82523,8.02481 L 19.60377,7.432934 c -0.008,-0.005 -0.0106,-0.0082 -0.003,-0.0079 l 0.003,0.0079 c 0.0312,0.02037 0.17754,0.08043 0.31512,0.152137 0.22992,0.120385 0.48154,0.17833 0.71543,0.284163 0.17013,0.07567 0.28787,0.256913 0.44794,0.24289 0.13838,-0.01323 0.27041,-0.163249 0.42889,-0.121709 z M 20.66713,1.850507 c 0.16907,0.06429 -0.28839,0.223574 -0.6305,0.430215 -0.52705,0.317502 -0.93319,0.735281 -1.38933,1.163909 -0.17542,0.166424 -0.38232,0.518587 -0.64479,0.49398 -0.19552,-0.01878 -0.29236,-0.227279 -0.17886,-0.420955 0.2921,-0.497419 1.0975,-1.033468 1.57613,-1.277681 0.4564,-0.232834 0.59505,-0.267759 0.80036,-0.323057 0.2458,-0.06588 0.46699,-0.06641 0.46699,-0.06641 z m -3.08822,0.52573 c 0.72893,-0.693477 1.59915,-1.26207 2.29024,-1.323719 0.17727,-0.01693 0.25664,0.08705 -0.0614,0.178066 -0.70802,0.231512 -1.46976,0.99775 -1.70497,1.289587 -0.19209,0.238127 -0.58394,0.808043 -0.88688,0.761476 -0.47784,-0.07408 0.20558,-0.75539 0.363,-0.90541 z m -1.66766,0.137584 c 0.33655,-0.06826 0.34554,0.393967 0.41486,0.5932 L 15.75646,3.522419 C 15.70756,3.35917 15.50061,2.598224 15.91125,2.513821 Z M 1.10675,10.010833 C 0.57705,10.121164 0.55959,9.367369 0.55959,9.367369 0.58239,8.955667 1.16443,9.009117 1.38483,9.027107 1.49119,9.155428 1.46263,9.269729 1.54252,9.41949 1.61872,9.56263 1.76636,9.657881 1.90791,9.697831 1.82241,9.890712 1.28534,9.974323 1.10675,10.010833 Z m 3.04509,0.617804 c -0.17754,0.0902 0.0188,0.674434 0.0188,0.674434 -0.20797,0.0942 -0.66993,0.373592 -0.86149,0.115621 -0.0881,-0.119061 -0.17515,-0.376503 -0.11906,-0.521234 0.0529,-0.13943 0.10583,-0.223311 0.26855,-0.284691 0.254,-0.0325 0.87048,-0.0743 0.69321,0.0159 z m 3.00302,8.855133 c -0.0238,0.0807 -0.0503,0.229921 -0.1053,0.292102 -0.0696,0.0804 -0.20929,0.144461 -0.34026,0.200821 -0.11297,0.05 -0.45455,0.0228 -0.5117,-0.0159 -0.11801,-0.0799 -0.12436,-0.416193 -0.11933,-0.537373 0.006,-0.160331 0.13256,-0.268282 0.2286,-0.385493 0.0688,-0.0815 0.17727,-0.14896 0.23098,-0.232841 0.002,0.0233 0.0564,0.256382 0.17357,0.338402 0.11694,0.0804 0.54319,0.0458 0.54319,0.0458 -0.0468,0.0839 -0.0722,0.198702 -0.0998,0.294482 z m 3.20146,0.923666 c -0.0413,0.0564 -0.12303,0.177271 -0.17568,0.214581 -0.10848,0.0765 -0.2458,0.0802 -0.36513,0.0574 -0.21643,-0.0423 -0.39661,-0.10874 -0.43683,-0.356132 -0.0283,-0.182561 -0.006,-0.365122 0.05,-0.538693 0.0225,-0.0709 0.12938,-0.366452 0.12568,-0.330732 0,0 0.22542,0.306122 0.47783,0.245011 0.25321,-0.0622 0.28046,-0.260881 0.36963,-0.257711 0.0577,0.155581 0.0505,0.828685 -0.0455,0.966266 z m 5.96397,0.988756 c -0.52864,-0.0423 -0.30718,-0.441063 -0.21458,-0.804345 0,0 0.12568,0.0161 0.21829,-0.0254 0.0937,-0.0407 0.24156,-0.131491 0.34237,-0.238122 0.0497,-0.0524 0.30824,0.411163 0.33655,0.506943 0.0672,0.337872 -0.22278,0.598224 -0.68263,0.560924 z m 3.05382,-4.198176 c -0.39899,0.278082 -0.84428,0.543724 -1.29751,0.715175 -0.40799,0.152671 -0.21908,-0.285482 -0.28099,-0.603254 -0.0733,-0.375182 -0.29184,-0.623364 -0.60431,-0.796395 0.26167,-0.166961 0.48366,-0.349252 0.69903,-0.590553 0.0849,-0.0958 0.62627,-0.547164 0.63473,-0.634744 -0.0323,0.366712 0.18495,1.029766 0.0532,1.388018 0.20505,-0.0683 0.49106,-0.229931 0.69268,-0.329152 0.21854,-0.10768 0.59504,-0.342902 0.6305,-0.271461 -0.0661,0.264061 -0.0399,0.330992 0.0251,0.572563 0.046,0.169071 -0.40878,0.449533 -0.55245,0.549803 z m 1.5375,-0.903025 c -0.17913,0.150551 -0.45932,0.201351 -0.65829,0.291842 -0.0508,-0.146851 -0.0796,-0.511183 0.0259,-0.684224 0,0 0.84085,-0.580234 0.93478,-0.345283 0.031,0.0778 -0.11642,0.437893 -0.30242,0.737665 z m 1.27397,-5.324772 c 7.9e-4,0.0392 -0.27649,0.0844 -0.39265,0.100281 -0.2233,0.0294 -0.46249,0.0765 -0.67892,0.1135 -0.34316,0.059 -0.77443,0.0836 -1.09008,0.241572 -0.20955,0.1053 -0.31168,0.159011 -0.50271,0.031 -0.16457,-0.110601 -0.31618,-0.221461 -0.4482,-0.361692 -0.22014,-0.232302 -0.508,-0.359572 -0.76544,-0.522293 -0.24051,-0.152661 -0.38868,-0.138901 -0.53578,-0.383383 l -0.13441,0.302422 c 0.20796,0.277812 0.59214,0.604314 0.89376,0.744805 0.29501,0.13706 0.40905,0.393172 0.66199,0.617273 0.11033,0.0982 0.31723,0.186271 0.45826,0.203471 0.26511,-0.0228 0.35745,-0.0696 0.35745,-0.0696 -0.0857,0.600344 -0.0781,0.568063 -0.27041,1.067336 -0.21537,0.565154 -0.52546,1.009397 -0.95382,1.427969 -0.50218,0.489483 -1.04775,0.936896 -1.56924,1.416849 -0.45482,0.417252 -0.8509,0.534463 -1.39436,0.782644 -0.13176,0.246062 -0.35031,0.524933 -0.33602,0.768625 0.0124,0.204521 0.16008,0.468043 0.24236,0.665694 0.26035,0.627854 0.78502,1.75816 0.78502,1.75816 -0.01,0.173311 -0.30348,0.317772 -0.45164,0.316442 -0.17728,-0.434182 -0.67284,-0.738984 -0.9779,-1.091146 -0.28258,-0.326492 -0.71676,-0.604044 -0.92975,-0.979486 -0.24765,-0.434193 0.16219,-0.962826 0.0918,-1.445169 -0.0812,-0.557743 -0.28178,-1.101196 -0.50588,-1.62032 -0.20135,-0.466462 -0.4916,-1.449918 -0.62627,-1.990731 -0.0707,-0.0185 -0.13732,-0.0355 -0.21087,-0.0413 -0.0479,-0.004 -0.10028,-0.003 -0.14579,-0.0145 -0.0154,0.0579 0.0114,0.135201 0.0341,0.189711 0.0495,0.119321 0.13864,0.219342 0.18944,0.340782 0.0241,0.0561 0.0738,0.158221 -0.0124,0.167481 -0.0707,0.008 -0.14579,-0.0889 -0.18309,-0.13996 -0.0339,-0.0442 -0.14209,-0.357983 -0.1995,-0.327562 -0.0476,0.0257 -0.007,0.14314 -0.002,0.183091 0.01,0.0775 -0.007,0.147111 -0.0823,0.182301 -0.16008,0.0736 -0.19844,-0.150021 -0.20982,-0.254262 -0.0153,-0.151871 -0.14896,-0.251091 -0.29025,-0.221991 -0.0347,0.007 -0.0653,0.0175 -0.0974,0.0273 -0.009,0.150291 -0.0386,0.298982 -0.0915,0.437893 -0.17489,0.459052 -0.51726,0.952505 -0.56039,1.452568 -0.0196,0.229932 0.0228,0.485783 0.0823,0.700095 0.0537,0.193151 0.18124,0.555633 0.16378,0.752744 -0.0172,0.197641 -0.3056,0.505883 -0.41725,0.662784 -0.15214,0.212201 -0.32385,0.401373 -0.42095,0.653794 -0.0926,0.238391 -0.10822,0.515673 -0.16722,0.760945 -0.0259,0.10848 -0.0516,0.255321 -0.0958,0.355072 -0.0653,0.146841 -0.14155,0.201351 -0.22225,0.270671 -0.0812,0.0672 -0.15028,0.155571 -0.27861,0.122241 -0.0622,-0.0161 -0.10212,-0.0233 -0.18944,-0.121711 -0.0362,-0.0389 -0.006,-0.367772 -7.9e-4,-0.423072 0.0405,-0.466203 0.20717,-0.728665 0.34237,-1.276628 0.0556,-0.226481 0.18918,-0.402692 0.13705,-0.640824 -0.0505,-0.232831 -0.22542,-0.429422 -0.254,-0.674684 C 9.89976,15.91622 9.93069,15.885259 9.70209,15.684438 9.54361,15.545007 9.4727,15.539447 9.28194,15.511667 c -0.24236,-0.036 -0.50218,-0.0833 -0.72179,-0.193681 -0.14049,-0.0696 -0.35057,-0.297122 -0.36248,-0.0153 -0.007,0.165891 0.16801,0.343432 0.1987,0.506943 0.0349,0.181771 -0.0503,0.353752 -0.12567,0.507473 -0.20902,0.430483 -0.42492,0.844555 -0.56991,1.311818 -0.0741,0.239971 -0.21141,0.451373 -0.26538,0.696644 -0.0431,0.194741 0.0124,0.413283 -0.20003,0.491603 -0.16007,0.0603 -0.39052,0.0413 -0.47757,-0.110861 -0.10398,-0.182561 0.009,-0.362222 0.0741,-0.549013 C 6.9904,17.70697 7.15444,17.266698 7.33674,16.830395 7.45792,16.542533 7.29124,16.090091 7.16793,15.800369 7.01448,15.443447 6.82239,15.110065 6.7028,14.740703 6.60199,14.434851 6.50806,14.120259 6.39826,13.830007 6.27285,13.497155 6.06594,13.175683 5.99345,12.837281 5.91985,12.498089 5.72199,12.385368 5.72066,11.853025 l 0.38047,0.054 c 0.19871,-0.008 0.41064,-0.008 0.62574,-0.0273 0.15664,-0.0143 0.34581,-0.0746 0.49372,-0.12382 C 7.55925,11.642924 7.81854,11.255572 8.0101,10.94918 8.13657,10.747839 8.20589,10.558127 8.33395,10.364716 8.66204,9.869943 8.67871,9.567261 8.40645,9.710132 8.28183,9.859363 8.1625,10.010964 8.06302,10.171035 7.718,10.722968 7.40738,11.329392 6.6348,11.383632 c -0.20929,0.0148 -0.51382,0.0273 -0.79931,0.0249 -0.28098,-0.002 -0.59187,-0.023 -0.87445,-0.0402 -0.60774,-0.0392 -0.5207,-0.594783 -0.41592,-0.667274 0.11853,-0.0823 0.74718,-0.009 1.0586,0.0622 0.17409,0.0394 0.24421,-0.0746 0.41857,-0.054 0.18944,0.0225 0.33232,0.059 0.42889,-0.0878 0.0741,-0.112981 0.195,-0.224642 0.31432,-0.284172 0.11166,-0.0563 0.26564,-0.0595 0.34714,-0.178331 0.0847,-0.123031 0.0982,-0.345542 0.1479,-0.489213 C 7.32224,9.487971 7.40553,9.32102 7.4812,9.144809 7.61349,8.841857 7.81219,8.575416 7.95639,8.288344 8.00639,8.138853 7.83839,8.004179 7.65344,8.290344 7.39601,8.688546 7.20683,8.870577 7.04305,9.3508 c -0.059,0.172511 -0.005,0.358512 -0.18627,0.455873 -0.16086,0.0863 -0.3003,0.0759 -0.44106,0.237601 -0.0429,0.0497 -0.0992,0.164841 -0.1397,0.189711 -0.0561,0.0347 -0.12514,0.0423 -0.19685,0.0294 -0.16298,-0.0307 -0.35216,-0.014 -0.49926,0.0609 C 5.55791,9.988793 5.56981,9.914703 5.61881,9.584241 5.67171,9.221758 5.89503,8.906377 5.94689,8.553944 6.02179,8.042239 5.33703,8.363973 5.10208,8.457144 4.6888,8.620665 4.26838,8.798996 3.8498,8.891866 3.38731,8.994787 2.96001,9.232648 2.50281,9.383729 2.30543,9.449029 2.2033,9.424229 2.04535,9.293229 1.88236,9.158028 1.74266,9.050337 1.79002,8.836816 2.01413,8.519054 2.40359,8.584135 2.59303,8.480684 2.90762,8.307123 3.105,8.250763 3.39102,8.026923 3.52754,7.918444 3.59157,7.834306 3.74794,7.795676 4.16545,7.69143 4.58085,7.599884 4.96449,7.363873 6.47897,6.434123 7.49576,5.834573 8.81021,4.620922 L 9.12269,4.427511 C 9.25868,4.357391 9.3534,4.312151 9.3534,4.312151 9.45447,4.249181 9.61904,4.167423 9.70503,4.127207 c 0.0995,-0.0463 0.11113,-0.04551 0.204,-0.0553 0.10504,-0.01058 0.2151,-0.0042 0.31009,0.01693 0.0217,0.0042 0.0804,0.02963 0.118,0.04604 0.0746,0.03228 0.0945,0.04075 0.12065,0.03916 0.0381,-0.0042 0.0622,-0.0926 0.0614,-0.134145 -0.001,-0.04048 -0.037,-0.07382 -0.0773,-0.0762 l 0.0212,0.0011 -0.0685,-0.02778 c -0.0646,-0.02778 -0.11219,-0.04868 -0.14499,-0.05583 -0.10981,-0.02328 -0.20876,-0.06562 -0.32782,-0.05318 -0.11721,0.01164 -0.25321,-0.004 -0.35984,0.04604 -0.0825,0.03731 -0.12356,0.07752 -0.2749,0.06747 0,0 -0.063,-0.0069 -0.21087,-0.06932 C 8.92269,3.787792 8.80204,3.692804 8.93989,3.511034 9.05101,3.363925 9.21029,3.271056 9.36666,3.218667 c 0.30057,-0.100012 0.80063,0.08176 1.03585,0.113508 0.43815,0.05927 0.49979,0.216959 0.92498,0.09102 0.42307,-0.124884 0.59187,-0.619129 1.02447,-0.757242 0.46566,-0.147903 0.63738,0.286281 0.44582,0.674691 -0.0942,0.190237 -0.25903,0.344754 -0.40746,0.48181 -0.19764,0.180976 -0.24527,0.21299 -0.1442,0.464346 0.14658,0.366979 0.2794,0.762004 0.26908,1.160734 -0.0114,0.455615 -0.0759,0.89271 -0.0376,1.332715 0.0127,0.136526 0.0471,0.380208 -0.0228,0.505886 -0.0939,0.168276 -0.31406,0.13388 -0.42254,0.27067 -0.20585,0.261145 -0.0257,0.776298 -0.23283,1.0385 -0.0238,10e-4 -0.0947,-0.0109 -0.11801,-0.0206 -0.10874,-0.180452 -0.0751,-0.284162 -0.0693,-0.476783 -0.0595,0.13573 -0.0849,0.256651 -0.18071,0.373332 -0.33179,-0.104251 0.0511,-1.029768 0.001,-1.287738 -0.0913,-0.47546 -0.65908,-0.616219 -0.98213,-0.838734 -0.12727,0.109803 -0.13124,0.281783 -0.2204,0.42069 -0.0881,0.136525 -0.26723,0.237597 -0.28787,0.421483 -0.0381,0.340786 0.20055,0.800899 0.3011,1.120258 0.0534,0.169331 0.1053,0.297122 0.1344,0.477573 0.0281,0.165361 0.0333,0.396872 0.0339,0.557213 2.7e-4,0.160871 0.0333,0.458263 0.0736,0.681574 0.007,0.0286 0.0122,0.0593 0.0172,0.0897 0.004,0.014 0.006,0.0294 0.009,0.0437 10e-4,0.005 10e-4,0.0122 8e-4,0.018 0.0352,0.251092 0.0452,0.524673 0.16219,0.724164 0.13388,0.231252 0.24976,0.416993 0.44714,0.595054 0.20717,0.186001 0.41064,0.326762 0.54425,0.584474 0.0513,0.0992 0.0966,0.204781 0.13309,0.315381 0.0532,0.0122 0.10583,0.0227 0.15531,0.0227 0.073,-7.9e-4 0.16007,0.002 0.22913,-0.0241 0.036,-0.0132 0.0661,-0.0357 0.10027,-0.0524 0.008,-0.005 0.0392,-0.008 0.0442,-0.0132 0.0331,-0.0347 0.0577,-0.132291 0.0757,-0.177271 0.0222,-0.0564 0.0238,-0.113771 0.0304,-0.172241 0.0167,-0.142091 0.0487,-0.277552 0.12223,-0.396092 0.0368,-0.059 0.0825,-0.191292 0.1651,-0.136781 0.0585,0.0376 0.0267,0.0918 0.0172,0.150541 -0.01,0.0638 -0.0196,0.138121 -0.0413,0.197651 -0.0241,0.0646 -0.0709,0.117211 -0.0754,0.191291 -0.005,0.0603 0.0114,0.0998 0.0664,0.0691 0.0521,-0.0299 0.0627,-0.095 0.0815,-0.14711 0.0619,-0.169331 0.19474,-0.314862 0.34052,-0.409313 0.0617,-0.0397 0.31882,-0.242621 0.37015,-0.0952 0.0191,0.055 -0.0667,0.15028 -0.0942,0.188911 -0.0495,0.0709 -0.10636,0.12568 -0.14552,0.201881 -0.0288,0.0574 -0.0688,0.125151 -0.0849,0.186791 -0.01,0.0386 -0.004,0.0712 -0.0259,0.105311 0.0765,-0.0217 0.11774,-0.0794 0.20373,-0.0841 0.0455,-0.004 0.12621,-0.0151 0.16404,0.0119 -0.0243,0.0632 -0.12356,0.0955 -0.16695,0.148431 -0.0323,0.0378 -0.0336,0.0291 0.0148,0.045 0.0273,0.01 0.0653,0.009 0.0937,0.007 0.14287,-0.013 0.37253,-0.0826 0.52334,-0.1434 0.16987,-0.125421 0.38921,-0.212462 0.56568,-0.401383 0.19553,-0.209811 0.44741,-0.481803 0.57944,-0.733424 0.0979,-0.186001 0.22781,-0.373063 0.28363,-0.564894 0.0532,-0.184681 0.013,-0.405072 0.0344,-0.597163 0.0214,-0.184941 0.0926,-0.389473 0.14155,-0.563304 0.0961,-0.340522 0.29395,-0.601133 0.50377,-0.878155 0.24077,-0.31671 0.34528,-0.508798 0.38576,-0.910967 0.032,-0.307712 0.13573,-0.409843 0.39238,-0.507209 0.34528,-0.132822 0.59584,-0.196059 0.80407,-0.490012 0.12726,-0.182299 0.10583,-0.509855 0.1016,-0.713057 l -0.005,0.01641 c -0.17197,0.444767 -0.28548,0.685275 -0.76385,0.793755 -0.31432,0.07011 -0.63897,0.04286 -0.95408,0.09869 -0.23363,0.0418 -0.61781,0.286016 -0.71068,0.477311 -0.0902,0.187591 -0.0878,0.493716 -0.14102,0.70115 -0.046,0.176478 -0.28998,1.147772 -0.60431,0.78159 0.0796,-0.0738 0.18177,-0.170661 0.13097,-0.286542 -0.0566,0.0807 -0.13388,0.115621 -0.22595,0.0942 0.0347,-0.170661 0.31617,-0.384714 0.24924,-0.552196 C 14.4491,7.998718 14.34009,8.031791 14.55864,7.704499 14.6785,7.524581 14.9108,7.167656 14.83195,6.930324 14.75365,6.697224 14.51313,6.645101 14.52266,6.338977 14.53746,5.865105 14.9489,5.65132 15.14998,5.272964 15.35583,4.882965 15.34472,4.438199 15.6347,4.069631 15.87335,3.767212 16.26309,3.434099 16.61816,3.320063 l 0.0982,-0.01826 c 0.0423,0.104775 -0.0312,0.228866 0.0751,0.310359 0.059,0.04471 0.14605,0.117739 0.3982,0.06165 0.15795,-0.01455 0.19711,0.04709 0.25797,0.173567 0.0389,0.07937 -0.0728,0.235481 0.0608,0.346871 0.0762,0.06429 0.11906,0.08996 0.25876,0.08361 l 0.17119,-0.01455 c -0.31671,0.466198 0.42677,0.261939 0.59293,0.220399 0.2577,-0.06376 0.89667,-0.297393 1.11495,-0.04392 0.27782,0.31909 -0.30665,0.700356 -0.57996,0.715702 -0.20929,0.01164 -0.44636,-0.174626 -0.74031,-0.133351 -0.0185,0.03043 -0.0839,0.154783 -0.0661,0.346077 0.0177,0.201085 0.33866,1.006481 0.64082,1.600739 0.3511,0.690831 0.54372,1.454956 0.77417,2.19367 0.11589,0.373332 0.2405,0.407203 0.26987,0.788205 C 19.86805,9.933131 19.67699,9.80557 19.61349,9.74842 19.50687,9.65292 19.51589,9.68992 19.44257,9.553158 19.2788,9.244917 18.96183,8.884284 18.70333,8.660973 l -0.15584,0.177541 c 0.12647,0.183891 0.3085,0.297392 0.43074,0.497953 0.17939,0.293952 0.25426,0.591604 0.50641,0.844285 0.17807,0.178331 0.47281,0.312212 0.7157,0.331522 0.23892,0.0185 0.3847,0.0275 0.626,0.0175 0.20479,-0.008 0.5342,-0.0564 0.74534,-0.0775 0.23071,-0.0228 0.39952,-0.0421 0.6223,-0.0429 0.1008,-0.0143 -0.0363,0.14711 -0.0357,0.296071 2.6e-4,0.118801 0.01,0.140231 0.0265,0.266172 z m 1.18983,0.180711 c 0,0 -0.65008,0.0296 -0.75751,-0.157951 -0.10768,-0.187071 0.0299,-0.501653 0.0299,-0.501653 0.16008,-0.150821 0.98214,-0.190501 0.98796,-0.138911 0.0394,0.400583 -0.26035,0.798515 -0.26035,0.798515 z m 0.79904,-5.03161 c 0,0 -0.50006,0.339463 -0.60696,0.414604 -0.10689,0.07567 -0.25161,-0.487101 -0.25161,-0.487101 0,0 0.3212,-0.469108 0.60668,-0.526259 0.28496,-0.05768 0.25189,0.598756 0.25189,0.598756 z"
       style="clip-rule:evenodd;fill:#3197b9;fill-rule:nonzero;stroke-width:0.264584;stroke-linejoin:round;stroke-miterlimit:1.41421"
       id="path11" />
  </g>
</svg>
