<?xml version="1.0" encoding="UTF-8"?>
<!DOCTYPE svg PUBLIC "-//W3C//DTD SVG 1.1//EN" "http://www.w3.org/Graphics/SVG/1.1/DTD/svg11.dtd">
<!-- Creator: CorelDRAW X6 -->
<svg xmlns="http://www.w3.org/2000/svg" xml:space="preserve" width="6.80555in" height="6.91666in" version="1.1" style="shape-rendering:geometricPrecision; text-rendering:geometricPrecision; image-rendering:optimizeQuality; fill-rule:evenodd; clip-rule:evenodd"
viewBox="0 0 6806 6917"
 xmlns:xlink="http://www.w3.org/1999/xlink">
 <defs>
  <style type="text/css">
   <![CDATA[
    .str1 {stroke:#1D1D1B;stroke-width:32.7913}
    .str2 {stroke:#1D1D1B;stroke-width:32.7913;stroke-linecap:round}
    .str0 {stroke:#FEFEFE;stroke-width:32.7913;stroke-linecap:round}
    .fil2 {fill:none}
    .fil0 {fill:#1D1D1B}
    .fil4 {fill:#4E680E}
    .fil3 {fill:#749717}
    .fil5 {fill:#96C01E}
    .fil1 {fill:#FEFEFE}
    .fil6 {fill:#1D1D1B;fill-rule:nonzero}
   ]]>
  </style>
 </defs>
 <g id="Layer_x0020_1">
  <metadata id="CorelCorpID_0Corel-Layer"/>
  <path class="fil0" d="M2793 1975c-28,-73 -81,-123 -154,-156l-4 -103c52,-56 102,-96 161,-133l5 -575c-4,-98 -85,-147 -134,-231l23 -328 12 -94 37 -20 19 18 -1 -84 39 -50 30 27 28 -14 3 -71 48 -39 38 38 8 -104 114 -28 33 43 2 26 45 -5 2 -76 114 -17 3 61 70 -1 2 -74 3 0 119 5 -2 61 68 5 6 -65 114 25 -4 56 36 8 31 -46 115 42 -10 81 61 -45 74 53 -2 49 44 -5 51 39 -1 60 38 4 23 39 1 66 39 257c-20,62 -120,204 -133,300l8 584c73,36 140,83 200,147l-5 122c-68,24 -125,75 -169,159l13 478c-413,63 -864,51 -1276,-36l14 -455 0 0z"/>
  <path class="fil1" d="M3938 1514l8 -181c7,-158 -78,-239 -148,-219 -56,16 -101,105 -102,210l-3 255 169 -100 75 35 0 0z"/>
  <path class="fil2 str0" d="M3944 1362c17,8 43,20 63,32m-167 97l-1 29 1 -29zm-189 124l0 -149 44 -27m148 202c-92,47 -148,133 -183,242l-7 -205 190 -114c115,40 227,94 332,181m-153 -30c-85,50 -143,131 -155,240"/>
  <path class="fil2 str1" d="M3858 1328c19,10 72,28 87,35"/>
  <path class="fil1" d="M3452 572l2 -179c0,-31 -14,-57 -34,-58 -20,-1 -37,24 -38,55l-3 182c24,-1 48,-1 73,-1l0 0z"/>
  <path class="fil1" d="M3775 635l17 -160c3,-31 -9,-58 -29,-60 -20,-2 -31,30 -34,61l-15 138c21,6 41,13 61,21l0 0z"/>
  <path class="fil1" d="M3897 700l46 -169c8,-30 -3,-48 -22,-50 -19,-2 -32,22 -40,51l-36 135c19,10 37,21 53,33l0 0z"/>
  <path class="fil1" d="M3979 777l50 -151c10,-29 12,-72 -8,-74 -19,-2 -31,22 -40,51l-40 134c13,13 26,26 37,40l0 0z"/>
  <path class="fil1" d="M3618 590l8 -170c1,-31 -14,-57 -34,-58 -20,-1 -36,24 -38,55l-8 162c24,3 48,6 72,11l0 0z"/>
  <path class="fil1" d="M3076 632l-23 -182c-4,-31 13,-57 33,-58 20,-1 26,33 31,64l22 155c-21,6 -42,13 -62,21l0 0z"/>
  <path class="fil1" d="M2952 694l-37 -182c-6,-31 6,-48 26,-49 20,-1 31,24 37,55l29 143c-19,10 -38,21 -55,32l0 0z"/>
  <path class="fil1" d="M2865 766l-58 -159c-11,-29 -8,-73 12,-74 20,-1 28,25 38,55l48 143c-8,7 -15,13 -22,20l-18 16 0 0z"/>
  <path class="fil1" d="M3219 591l-10 -182c-2,-31 14,-57 33,-58 20,-1 37,24 38,55l10 173c-24,3 -48,7 -72,11l0 0z"/>
  <path class="fil1" d="M2811 851l-65 -139c-13,-28 -27,-82 -7,-83 20,-1 25,26 38,54l56 128c-8,13 -15,26 -21,39l0 0z"/>
  <path class="fil1" d="M4019 841l45 -83c15,-27 31,-79 12,-81 -19,-2 -26,23 -40,51l-39 76c8,12 15,25 21,38l0 0z"/>
  <polyline class="fil2 str2" points="4013,1396 4150,1492 4148,1608 "/>
  <polyline class="fil2 str1" points="3695,1439 3847,1346 3840,1491 "/>
  <path class="fil1" d="M3868 2193c24,-6 50,16 58,48 8,32 -5,63 -29,69 -24,6 -50,-15 -58,-48 -8,-32 5,-63 29,-69l0 0z"/>
  <path class="fil1" d="M2985 2210c20,7 27,37 16,69 -11,31 -36,51 -56,44 -20,-7 -27,-37 -16,-69 11,-31 36,-51 57,-45l0 0z"/>
  <path class="fil2 str0" d="M2895 1357c-34,14 -72,28 -98,44m195 92l-1 29m186 72l8 -114 -43 -30m-124 195c90,52 148,128 176,238l4 -214 -174 -101c-124,15 -258,114 -342,193m140 -34c83,56 137,140 142,250"/>
  <path class="fil1" d="M2893 1539l-2 -242c-1,-160 94,-235 164,-210 56,20 95,112 89,218l-14 256 -139 -69 -99 47 0 0z"/>
  <path class="fil2 str1" d="M2984 1330c-15,5 -73,20 -89,26"/>
  <polyline class="fil2 str2" points="2797,1401 2677,1474 2676,1633 "/>
  <polyline class="fil2 str1" points="3143,1449 2996,1346 2992,1492 "/>
  <polygon class="fil1" points="2899,4190 2899,4416 2987,4399 2985,4162 2899,4190 "/>
  <path class="fil3" d="M5221 6573c-25,182 1196,-138 1598,-159 -205,-142 -460,-203 -637,-326 125,-188 285,-320 480,-430 -282,-9 -582,37 -835,74l0 756c0,-109 -241,-68 -606,14l0 71z"/>
  <path class="fil3" d="M1598 6573c25,182 -1196,-138 -1598,-159 205,-142 460,-203 637,-326 -125,-188 -285,-320 -480,-430 282,-9 582,37 835,74l0 756c0,-109 241,-68 606,14l0 71z"/>
  <path class="fil4" d="M1598 6503l0 71c0,-110 -601,41 -606,-85 0,-109 241,-68 606,14l0 0z"/>
  <path class="fil4" d="M5221 6503l0 71c0,-110 601,41 606,-85 0,-109 -241,-68 -606,14l0 0z"/>
  <path class="fil0" d="M1288 2510l478 -565c728,705 2559,705 3287,0l478 565c-462,404 -592,1552 -20,2371 -469,1277 -1944,1671 -2101,2036 -157,-365 -1632,-760 -2101,-2036 571,-818 442,-1967 -20,-2371l0 0z"/>
  <path class="fil5" d="M5151 5517c390,-113 676,-157 676,28l0 944c0,-245 -1201,264 -2310,296 302,-266 1104,-594 1634,-1267l0 0zm-4159 28c-3,-180 287,-132 684,-18 531,667 1326,993 1626,1257 -1109,-32 -2310,-540 -2310,-296l0 -944z"/>
  <path class="fil1" d="M1814 2246l-264 301c396,674 251,1735 -56,2353 434,904 1233,1477 1915,1534 681,-56 1481,-630 1915,-1534 -307,-618 -451,-1679 -56,-2353l-264 -301c-853,446 -2338,446 -3190,0l0 0z"/>
  <path class="fil5" d="M3411 4083l-682 -682c-51,-60 -57,-161 9,-208 388,-274 1006,-235 1347,-1 66,46 60,147 9,208l-682 683 0 0zm230 234l682 -682c60,-51 161,-57 208,9 274,388 235,1006 1,1347 -46,66 -147,60 -208,9l-683 -682 0 0zm-234 230l682 682c51,60 57,161 -9,208 -388,274 -1006,235 -1347,1 -66,-46 -60,-147 -9,-208l682 -683 0 0zm-230 -234l-682 682c-60,51 -161,57 -208,-9 -274,-388 -235,-1006 -1,-1347 46,-66 147,-60 208,-9l683 682 0 0zm513 -1582c10,2 20,4 29,5 -1,4 -1,8 -2,12 -2,41 29,75 69,78 35,2 66,-21 75,-54 15,4 30,9 45,14 -1,4 -2,7 -3,11 -7,40 20,78 60,85 35,6 68,-13 81,-45 15,6 29,13 43,19 -2,4 -3,7 -4,11 -12,39 10,80 49,92 34,10 70,-5 86,-35 14,8 27,16 40,24 -2,3 -4,7 -6,11 -16,37 0,81 37,97 32,14 70,3 90,-24 13,10 25,19 37,29 -2,3 -5,6 -7,10 -21,35 -9,80 25,101 30,18 68,12 92,-13 11,11 22,22 33,33 -3,3 -5,5 -8,9 -25,32 -19,78 13,103 28,22 66,20 92,-2 10,12 20,25 29,37 -3,2 -6,5 -9,8 -29,29 -28,76 1,104 25,25 64,28 92,9 8,13 17,27 24,40 -3,2 -6,4 -10,6 -32,25 -37,72 -12,103 22,28 60,35 90,20 7,14 13,29 19,43 -4,1 -7,3 -10,5 -35,21 -46,67 -24,101 18,30 55,42 87,31 5,15 10,30 14,45 -4,1 -8,2 -11,4 -37,17 -53,61 -36,98 15,32 50,49 83,41 3,15 6,31 9,46 -4,1 -8,1 -12,3 -39,12 -60,54 -48,92 11,34 44,54 78,51 1,16 2,31 3,47 -4,0 -8,1 -12,1 -40,8 -66,46 -59,86 7,35 37,59 71,60 -1,16 -2,31 -3,47 -4,0 -8,0 -12,0 -41,3 -71,38 -69,78 2,35 29,63 63,68 -1,6 -2,11 -3,17 -2,10 -4,20 -6,29 -4,-1 -8,-1 -11,-2 -41,-2 -75,29 -78,69 -2,35 21,66 54,75 -4,15 -9,30 -14,45 -4,-1 -7,-2 -11,-3 -40,-7 -78,20 -85,60 -6,35 13,68 45,81 -6,15 -13,29 -19,43 -3,-2 -7,-3 -11,-4 -39,-12 -80,10 -92,49 -10,34 5,69 35,86 -8,14 -16,27 -24,40 -3,-2 -7,-4 -10,-6 -37,-16 -81,0 -97,37 -14,32 -4,69 24,89 -10,13 -19,25 -29,37 -3,-2 -6,-5 -9,-7 -35,-21 -80,-9 -101,26 -18,30 -12,68 13,91 -11,11 -22,22 -33,33 -3,-3 -5,-5 -8,-8 -32,-25 -78,-19 -103,13 -22,28 -20,66 2,92 -12,10 -25,20 -37,29 -2,-3 -5,-6 -7,-9 -29,-29 -75,-28 -104,1 -25,25 -28,63 -9,92 -13,8 -27,16 -40,24 -2,-3 -4,-6 -6,-9 -25,-32 -72,-37 -103,-12 -28,22 -35,60 -20,90 -14,7 -29,13 -43,20 -1,-4 -3,-7 -5,-10 -21,-35 -67,-46 -101,-24 -30,18 -42,55 -31,87 -15,5 -30,10 -45,14 -1,-4 -2,-7 -4,-11 -17,-37 -61,-53 -98,-36 -32,15 -49,50 -41,83 -15,3 -31,6 -46,9 -1,-4 -1,-8 -3,-12 -12,-39 -54,-60 -92,-48 -34,11 -54,44 -51,77 -16,1 -31,2 -47,3 0,-4 -1,-8 -1,-12 -8,-40 -46,-66 -86,-59 -35,7 -59,37 -60,71 -16,-1 -31,-2 -47,-3 0,-4 0,-8 0,-12 -3,-41 -38,-71 -78,-69 -35,2 -63,29 -68,63 -6,-1 -11,-2 -17,-3 -10,-2 -20,-4 -29,-6 1,-4 1,-8 2,-11 2,-41 -29,-75 -69,-78 -35,-2 -66,21 -75,54 -15,-4 -30,-9 -45,-14 1,-4 2,-7 3,-11 7,-40 -20,-78 -60,-85 -35,-6 -68,13 -81,45 -14,-6 -29,-13 -43,-19 2,-4 3,-7 4,-11 12,-39 -10,-80 -49,-92 -34,-10 -69,5 -86,35 -14,-8 -27,-16 -40,-24 2,-3 4,-7 6,-10 16,-37 0,-81 -37,-97 -32,-14 -69,-4 -89,24 -13,-10 -25,-19 -37,-29 2,-3 5,-6 7,-9 21,-35 9,-80 -25,-101 -30,-18 -68,-12 -91,13 -11,-11 -22,-22 -33,-33 3,-3 5,-5 8,-9 25,-32 19,-78 -13,-103 -28,-22 -66,-20 -92,2 -10,-12 -20,-25 -29,-37 3,-2 6,-5 9,-7 29,-29 28,-76 -1,-104 -25,-25 -63,-28 -92,-9 -8,-13 -17,-27 -24,-40 3,-2 6,-4 9,-6 32,-25 37,-72 12,-103 -22,-28 -60,-35 -90,-20 -7,-14 -13,-29 -19,-43 4,-1 7,-3 10,-5 35,-21 46,-67 24,-101 -18,-30 -55,-42 -87,-31 -5,-15 -10,-30 -14,-45 4,-1 7,-2 11,-4 37,-17 53,-61 36,-98 -15,-32 -50,-49 -83,-41 -3,-15 -6,-31 -9,-46 4,-1 8,-1 12,-3 39,-12 60,-54 48,-92 -11,-34 -44,-54 -78,-51 -1,-16 -2,-31 -3,-47 4,0 8,-1 12,-1 40,-8 66,-46 59,-86 -7,-35 -37,-59 -71,-60 1,-16 2,-31 3,-47 4,0 8,0 12,0 41,-3 71,-38 69,-78 -2,-35 -29,-63 -63,-68 1,-6 2,-11 3,-17 2,-10 4,-20 6,-29 4,1 8,1 11,2 41,2 75,-29 78,-69 2,-35 -21,-66 -54,-75 4,-15 9,-30 14,-45 4,1 7,2 11,3 40,7 78,-20 85,-60 6,-35 -13,-68 -45,-81 6,-14 13,-29 19,-43 3,2 7,3 11,4 39,12 80,-10 92,-49 10,-34 -5,-69 -35,-86 8,-14 16,-27 24,-40 3,2 7,4 10,6 37,16 81,0 97,-37 14,-32 4,-69 -24,-89 10,-13 19,-25 29,-37 3,2 6,5 9,7 35,21 80,9 101,-25 18,-30 12,-68 -13,-91 11,-11 22,-22 33,-33 3,3 5,5 8,8 32,25 78,19 103,-13 22,-28 20,-66 -2,-92 12,-10 25,-20 37,-29 2,3 5,6 7,9 29,29 76,28 104,-1 25,-25 28,-63 9,-92 13,-8 27,-17 40,-25 2,3 4,6 6,9 25,32 72,37 103,12 28,-22 35,-60 20,-90 14,-7 29,-13 43,-19 1,4 3,7 5,10 21,35 67,46 101,24 30,-18 42,-55 31,-87 15,-5 30,-10 45,-14 1,4 2,7 4,11 17,37 61,53 98,36 32,-15 49,-50 41,-83 15,-3 31,-6 46,-9 1,4 1,8 3,12 12,39 54,60 92,48 34,-11 54,-44 51,-78 16,-1 31,-2 47,-3 0,4 1,8 1,12 8,40 46,66 86,59 35,-7 59,-37 60,-71 16,1 31,2 47,3 0,4 0,8 0,12 3,41 38,71 78,69 35,-2 63,-29 68,-63 6,1 11,2 17,3l0 0z"/>
  <path class="fil6" d="M3456 3362c0,-15 0,-27 1,-36 1,-9 2,-16 5,-20 2,-5 6,-8 10,-10 5,-2 11,-4 18,-5l18 -3c2,-1 3,-4 3,-7 1,-3 1,-6 0,-9 -1,-3 -2,-5 -3,-7 -18,1 -35,1 -51,1 -16,0 -32,1 -48,1 -16,0 -32,0 -48,-1 -17,0 -33,-1 -51,-1 -2,1 -3,4 -3,7 -1,3 -1,6 0,9 1,3 2,5 3,7l18 3c8,1 13,3 18,5 5,2 8,5 10,10 2,5 4,11 5,20 1,9 1,21 1,36l0 240c0,15 0,27 -1,36 -1,9 -2,16 -5,20 -2,5 -6,8 -10,10 -4,2 -10,3 -18,5l-18 3c-2,1 -3,4 -3,7 -1,3 -1,6 0,9 1,3 2,5 3,7 18,-1 35,-1 51,-1 16,0 32,-1 48,-1 15,0 31,0 47,1 16,0 33,1 51,1 2,-1 3,-4 4,-7 1,-3 1,-6 0,-9 0,-3 -2,-5 -3,-7l-18 -3c-7,-1 -13,-3 -18,-5 -5,-2 -8,-5 -10,-10 -2,-5 -4,-11 -5,-20 -1,-9 -1,-21 -1,-36l0 -240z"/>
  <path class="fil6" d="M3461 5084c0,-15 0,-27 1,-36 1,-9 2,-16 5,-20 2,-5 6,-8 10,-10 4,-2 10,-3 18,-4l17 -3c2,-1 3,-4 4,-7 1,-3 1,-6 0,-9 -1,-3 -2,-5 -4,-7 -16,1 -33,1 -49,1 -16,0 -32,1 -48,1 -31,0 -64,-1 -98,-2 -3,1 -4,4 -5,7 -1,3 -1,6 0,9 1,3 2,5 4,7l19 3c7,1 13,2 18,4 4,2 8,5 10,10 2,5 4,11 5,20 1,9 1,21 1,36l0 243c0,15 0,27 -1,36 -1,9 -2,16 -5,20 -2,5 -6,8 -10,10 -4,2 -10,3 -18,4l-25 3c-2,1 -3,4 -3,7 0,3 0,6 1,9 1,3 2,5 4,7 20,-1 39,-1 55,-2 17,0 33,0 48,0l87 0c13,0 27,0 41,0 14,0 28,0 41,0 13,0 26,0 38,1 12,0 22,1 31,1 2,-5 5,-11 8,-19 3,-8 6,-18 8,-28 3,-10 5,-20 7,-31 2,-10 4,-20 4,-28 -2,-3 -4,-5 -7,-6 -3,-1 -7,-2 -10,-2 -3,0 -6,1 -8,4 -8,15 -15,27 -21,37 -6,10 -13,17 -19,23 -6,6 -13,10 -20,12 -7,3 -15,4 -24,5 -9,1 -19,1 -31,1 -12,0 -22,0 -30,-1 -8,-1 -14,-2 -19,-3 -5,-1 -9,-3 -12,-5 -3,-2 -5,-4 -7,-7 -4,-5 -7,-13 -9,-23 -2,-10 -3,-23 -2,-39l0 -228z"/>
  <path class="fil6" d="M2437 4170c0,-10 0,-18 1,-23 1,-5 4,-8 8,-9 4,-1 10,-2 19,-2 17,0 32,4 45,12 13,8 23,19 30,34 7,14 11,31 11,51 0,13 -1,24 -4,33 -2,9 -5,17 -9,23 -3,6 -7,11 -11,15 -6,6 -13,11 -21,14 -8,3 -17,4 -29,4 -10,0 -17,0 -23,-1 -6,-1 -10,-2 -12,-3 -3,-2 -4,-4 -5,-7 -1,-3 -1,-8 -1,-14l0 -127zm-89 275c0,15 0,27 -1,35 -1,9 -2,16 -5,20 -2,4 -6,8 -10,10 -4,2 -10,3 -18,5l-18 3c-2,1 -3,3 -3,7 -1,3 -1,6 0,9 1,3 2,6 3,7 11,0 22,-1 33,-1 10,0 21,-1 31,-1 10,0 21,0 32,0 16,0 31,0 47,1 16,0 32,1 49,1 2,-1 3,-4 3,-7 1,-3 1,-6 0,-9 -1,-3 -2,-5 -3,-7l-18 -3c-7,-1 -13,-3 -18,-5 -4,-2 -8,-5 -10,-10 -2,-4 -4,-11 -5,-20 -1,-9 -1,-21 -1,-35l0 -80c0,-4 0,-8 1,-10 1,-2 3,-3 7,-4 3,-1 9,-1 16,-1 8,0 15,1 20,5 6,3 10,9 14,18 7,17 15,34 23,51 8,17 17,33 28,51 9,16 20,28 32,39 12,10 26,18 41,23 15,5 33,7 53,7 7,0 13,0 20,-1 7,0 13,-1 18,-2 5,-1 10,-2 13,-4 1,-1 2,-3 2,-5 0,-2 0,-4 -1,-7 -1,-2 -2,-4 -4,-5 -5,0 -11,-2 -19,-4 -8,-3 -16,-7 -25,-14 -10,-9 -20,-20 -31,-35 -10,-14 -21,-32 -32,-53 -11,-21 -24,-46 -38,-75 -2,-4 -2,-6 -2,-9 0,-2 2,-4 5,-6 8,-4 15,-8 23,-13 8,-5 15,-12 22,-19 7,-7 12,-17 17,-27 4,-11 7,-23 7,-38 0,-21 -5,-39 -14,-56 -10,-16 -24,-30 -43,-41 -8,-5 -19,-9 -32,-13 -13,-4 -27,-6 -44,-8 -16,-2 -34,-3 -52,-3 -21,0 -40,0 -59,1 -18,1 -36,1 -53,2 -17,1 -34,2 -50,3 -3,1 -4,3 -5,7 -1,3 -1,6 0,10 1,3 2,5 4,7l18 3c7,1 12,2 16,4 4,2 7,6 9,11 2,5 3,13 3,22 1,10 1,23 1,39l0 231z"/>
  <path class="fil6" d="M4347 4098c-23,0 -45,2 -67,7 -22,4 -42,11 -62,19 -19,9 -37,19 -52,32 -15,12 -29,27 -40,44 -12,17 -21,36 -28,57 -7,22 -10,45 -10,72 0,27 4,51 11,72 7,21 17,40 29,56 13,16 27,30 42,42 16,12 33,21 52,28 19,7 39,13 60,16 21,3 42,5 64,5 17,0 33,-2 49,-4 16,-3 31,-6 45,-9 14,-4 27,-7 39,-11 3,-5 6,-13 9,-23 3,-10 6,-22 9,-35 3,-14 5,-28 6,-45 -1,-3 -4,-5 -7,-6 -3,-1 -7,-2 -10,-2 -3,0 -6,1 -8,3 -4,11 -10,23 -17,34 -7,12 -16,23 -26,33 -10,10 -23,18 -38,24 -15,6 -32,9 -52,10 -16,0 -31,-3 -46,-8 -15,-6 -29,-14 -42,-25 -13,-11 -24,-24 -34,-40 -10,-16 -18,-35 -23,-56 -5,-21 -8,-45 -8,-71 0,-26 3,-49 9,-70 6,-21 13,-38 23,-54 10,-15 21,-28 34,-38 13,-10 26,-18 41,-23 14,-5 29,-7 43,-7 32,0 58,8 78,24 21,16 35,39 44,69 2,2 4,3 8,3 4,0 7,0 10,-2 3,-1 5,-3 7,-6 -1,-10 -3,-20 -4,-30 -1,-11 -2,-21 -2,-30 -1,-10 -1,-18 -1,-26 0,-7 0,-13 0,-16 -5,0 -12,-2 -20,-3 -8,-2 -18,-4 -30,-6 -11,-2 -24,-4 -38,-5 -14,-2 -30,-2 -46,-3l0 0z"/>
  <path class="fil0" d="M5834 4382c-13,2 -26,-14 -39,-20 -261,-135 -482,-194 -533,-650 0,0 -21,-534 419,-993 441,-459 450,-828 450,-828 179,270 -23,518 -23,518 184,-19 243,77 243,77 -180,-41 -169,146 -169,146 -137,-26 -144,66 -144,66 41,-27 96,17 96,17 -35,89 -94,101 -94,101 0,0 -227,38 -375,184 -346,342 -237,558 -237,558 75,-408 392,-569 392,-569 -33,75 20,122 20,122 177,-62 162,-228 162,-228 111,16 81,213 81,213 96,-69 247,-30 247,-30 -18,79 -98,119 -98,119 103,-39 225,85 225,85 -50,77 -218,99 -218,99 -240,-51 -279,27 -279,27 88,13 156,85 156,85 -152,150 -206,73 -308,84 -302,28 -312,393 -218,472 -25,-113 -26,-189 95,-294 68,-59 269,-64 279,49 -2,6 -4,3 -6,6 -30,-30 -109,-45 -135,-9 -6,14 17,1 34,10 3,2 24,21 16,38 -4,9 -27,21 -47,23 -83,8 -127,1 -166,90 30,-44 97,-65 170,-35 3,1 17,11 13,20 -10,23 -73,38 -78,94 -1,7 4,10 9,8 22,-7 21,-9 36,-3 8,3 30,15 25,28 -4,10 -10,32 -46,37 -57,9 -133,60 13,247 8,11 30,21 28,34l0 0z"/>
  <path class="fil0" d="M5710 5018c-78,2 -117,-115 -68,-106 83,16 39,-35 25,-46 -102,-76 -56,-181 -28,-231 49,-86 3,-136 20,-160 22,-30 83,4 102,18 37,28 30,27 47,89 4,14 17,20 32,8 122,-94 65,-263 105,-319 17,-22 59,-5 66,1 87,62 127,154 127,259 0,118 -7,221 -76,330 268,-276 161,-454 75,-678 -19,-50 -20,-102 -5,-124 28,-43 104,-23 112,-18 46,27 49,99 73,65 46,-112 -104,-276 -217,-301 5,-9 -5,-8 5,-22 276,-141 465,345 427,588 -53,343 -377,590 -688,689 -76,24 -159,44 -210,91 35,20 58,58 58,102 0,65 -53,118 -118,118 -65,0 -118,-53 -118,-118 0,-148 148,-187 253,-235l0 0z"/>
  <path class="fil0" d="M985 4382c13,2 26,-14 39,-20 261,-135 482,-194 533,-650 0,0 21,-534 -419,-993 -441,-459 -450,-828 -450,-828 -179,270 23,518 23,518 -184,-19 -243,77 -243,77 180,-41 169,146 169,146 137,-26 144,66 144,66 -41,-27 -96,17 -96,17 35,89 94,101 94,101 0,0 227,38 375,184 346,342 237,558 237,558 -75,-408 -392,-569 -392,-569 33,75 -20,122 -20,122 -177,-62 -162,-228 -162,-228 -111,16 -81,213 -81,213 -96,-69 -247,-30 -247,-30 18,79 98,119 98,119 -103,-39 -225,85 -225,85 50,77 218,99 218,99 240,-51 279,27 279,27 -88,13 -156,85 -156,85 152,150 206,73 308,84 302,28 312,393 218,472 25,-113 26,-189 -95,-294 -68,-59 -269,-64 -279,49 2,6 4,3 6,6 30,-30 109,-45 135,-9 6,14 -17,1 -34,10 -3,2 -24,21 -16,38 4,9 27,21 47,23 83,8 127,1 166,90 -30,-44 -97,-65 -170,-35 -3,1 -17,11 -13,20 10,23 73,38 78,94 1,7 -4,10 -9,8 -22,-7 -21,-9 -36,-3 -8,3 -30,15 -25,28 4,10 10,32 46,37 57,9 133,60 -13,247 -8,11 -30,21 -28,34l0 0z"/>
  <path class="fil0" d="M1108 5018c78,2 117,-115 68,-106 -83,16 -39,-35 -25,-46 102,-76 56,-181 28,-231 -49,-86 -3,-136 -20,-160 -22,-30 -83,4 -102,18 -37,28 -30,27 -47,89 -4,14 -17,20 -32,8 -122,-94 -65,-263 -105,-319 -17,-22 -59,-5 -66,1 -87,62 -127,154 -127,259 0,118 7,221 76,330 -268,-276 -161,-454 -75,-678 19,-50 20,-102 5,-124 -28,-43 -104,-23 -112,-18 -46,27 -49,99 -73,65 -46,-112 104,-276 217,-301 -5,-9 5,-8 -5,-22 -276,-141 -465,345 -427,588 53,343 377,590 688,689 76,24 159,44 210,91 -35,20 -58,58 -58,102 0,65 53,118 118,118 65,0 118,-53 118,-118 0,-148 -148,-187 -253,-235l0 0z"/>
  <path class="fil0" d="M1016 1807c82,-100 252,-36 231,78 -159,54 -234,231 -194,377 3,-107 126,-74 104,-46 -64,77 -1,359 163,567 -479,-302 -513,-1021 -152,-1317 316,-259 673,-89 657,214 -7,118 -63,249 -198,250 -101,0 -169,-56 -169,-137 0,-138 141,-169 247,-108 82,-135 -110,-343 -324,-277 104,57 101,292 -60,208 -142,-74 -283,56 -305,192l0 0z"/>
  <path class="fil0" d="M5796 1807c-82,-100 -252,-36 -231,78 159,54 234,231 194,377 -3,-107 -126,-74 -104,-46 64,77 1,359 -163,567 479,-302 513,-1021 152,-1317 -316,-259 -673,-89 -657,214 7,118 63,249 198,250 101,0 169,-56 169,-137 0,-138 -141,-169 -247,-108 -82,-135 110,-343 325,-277 -104,57 -101,292 59,208 142,-74 283,56 305,192l0 0z"/>
  <path class="fil6" d="M1222 6108c-4,-1 -7,-2 -9,-4 -2,-2 -2,-4 -2,-5 0,-2 1,-4 4,-6 2,-3 6,-6 12,-10 6,-5 13,-10 24,-17l34 -23c21,-15 39,-28 53,-40 14,-12 26,-23 34,-34 9,-11 15,-21 20,-32 5,-11 8,-22 9,-34 2,-15 2,-29 -2,-42 -3,-14 -9,-26 -18,-37 -9,-11 -20,-20 -33,-28 -14,-8 -29,-13 -48,-16 -15,-2 -30,-2 -45,0 -15,2 -29,6 -43,12 -14,6 -26,15 -38,25 -12,10 -22,23 -31,38 0,3 1,6 3,8 2,2 4,4 8,4 3,1 6,0 9,-1 8,-10 17,-19 26,-27 9,-7 19,-13 29,-16 10,-3 21,-4 33,-2 14,2 25,7 34,16 9,8 15,18 19,30 4,12 5,25 2,40 -3,16 -7,32 -14,46 -7,14 -15,28 -24,40 -10,12 -20,24 -32,35 -12,11 -24,22 -36,32 -14,12 -28,23 -42,33 -14,10 -26,19 -38,27 -12,8 -22,15 -31,21 -1,3 -1,6 -1,8 1,3 2,5 5,6 4,0 9,1 16,1 7,1 15,2 24,3 9,1 19,3 30,4l98 15c13,2 25,4 34,5 10,2 19,3 27,5 8,2 16,3 25,5 3,-3 7,-8 11,-15 4,-6 8,-14 12,-22 4,-8 8,-17 12,-27 4,-9 7,-19 10,-28 -1,-3 -2,-5 -5,-6 -3,-1 -5,-2 -8,-2 -3,0 -5,0 -7,2 -6,7 -11,13 -15,17 -5,4 -9,7 -14,8 -5,2 -11,2 -19,1 -7,0 -16,-2 -28,-3l-75 -11 0 0z"/>
  <path class="fil6" d="M1535 6024c1,-9 3,-20 5,-32 2,-12 5,-24 8,-37 3,-13 7,-25 11,-37 4,-12 9,-23 14,-32 5,-9 11,-17 18,-22 7,-5 14,-7 22,-6 8,1 14,5 19,12 5,7 8,15 11,26 2,11 4,22 4,35 1,13 1,26 0,39 -1,13 -2,26 -3,38 -1,12 -3,23 -4,32 -1,9 -3,20 -6,32 -2,12 -5,24 -8,37 -3,13 -7,25 -11,37 -4,12 -9,23 -14,32 -5,9 -11,17 -18,22 -7,5 -14,7 -22,6 -8,-1 -14,-5 -19,-12 -5,-7 -8,-15 -11,-26 -2,-11 -4,-22 -4,-35 0,-13 0,-26 0,-39 1,-13 2,-26 3,-38 1,-12 3,-23 4,-32l0 0zm83 -194c-20,-3 -38,-2 -55,4 -17,5 -32,14 -45,26 -13,12 -25,26 -35,42 -10,16 -18,34 -25,52 -6,19 -11,38 -14,57 -3,20 -4,40 -4,60 1,20 3,39 8,57 5,18 12,35 21,50 9,15 21,27 35,37 14,10 32,16 52,20 20,3 38,2 55,-3 17,-5 32,-13 45,-25 13,-12 25,-25 35,-41 10,-16 18,-34 25,-52 7,-19 11,-38 14,-58 3,-19 4,-39 4,-59 -1,-20 -3,-39 -8,-57 -5,-18 -12,-35 -21,-50 -9,-15 -21,-28 -35,-38 -14,-10 -32,-17 -51,-20l0 0z"/>
  <path class="fil6" d="M5217 5912c-2,-10 -3,-20 -4,-30 -1,-9 -2,-18 -3,-26 -1,-8 -2,-14 -2,-19 -1,-2 -3,-4 -4,-5 -2,-1 -4,-1 -5,-1 -2,0 -5,2 -10,5 -5,3 -11,7 -18,11 -7,4 -15,8 -24,13 -12,5 -25,11 -38,16 -13,5 -26,10 -39,14 -1,2 -2,4 -2,7 0,3 1,6 2,9 1,3 3,5 5,6l29 -1c9,0 16,1 21,4 5,3 8,8 11,15 2,7 4,18 6,31l30 200c2,12 3,22 3,30 0,8 0,14 -2,18 -2,4 -5,8 -9,10 -4,2 -10,4 -18,6l-25 6c-2,2 -2,4 -2,7 0,3 1,6 2,9 1,3 3,5 5,5 8,-2 16,-3 27,-5 10,-2 22,-4 34,-6 12,-2 25,-4 39,-6 13,-2 25,-4 37,-6 12,-2 23,-3 34,-4 10,-1 19,-2 27,-3 2,-1 3,-3 3,-6 0,-3 0,-6 -1,-9 -1,-3 -3,-5 -5,-6l-26 2c-7,1 -14,0 -19,0 -5,-1 -9,-3 -12,-7 -3,-4 -5,-9 -7,-16 -2,-7 -4,-17 -6,-30l-36 -235 0 0z"/>
  <path class="fil6" d="M5460 5831c10,-1 19,-1 28,3 8,3 15,8 20,14 5,6 8,13 10,21 1,9 1,18 0,25 -2,8 -4,14 -7,20 -3,6 -7,11 -10,14 -6,6 -12,12 -20,19 -8,6 -16,12 -25,18 -9,6 -17,11 -25,16 -8,5 -15,9 -21,12 -1,5 -1,10 0,14 1,4 4,7 7,10 3,3 7,4 11,4 5,-6 10,-11 15,-16 6,-5 12,-9 19,-12 7,-3 15,-6 23,-7 15,-2 28,0 40,7 12,6 22,16 30,29 8,13 13,29 16,48 2,15 2,29 0,42 -2,13 -6,24 -11,34 -5,10 -11,18 -17,25 -7,7 -13,12 -20,16 -7,4 -13,6 -18,7 -4,1 -9,0 -14,-1 -5,-1 -10,-4 -15,-9 -2,-2 -4,-4 -7,-8 -3,-3 -6,-6 -10,-10 -4,-3 -8,-6 -13,-8 -5,-2 -10,-2 -16,-2 -8,1 -15,4 -20,8 -5,4 -9,9 -10,14 -2,6 -3,11 -2,17 1,8 4,14 9,19 5,5 10,9 17,11 7,3 14,4 22,4 8,0 17,0 25,-1 8,-1 18,-4 29,-7 11,-3 22,-8 34,-13 12,-6 24,-13 36,-21 12,-8 25,-18 36,-30 22,-22 37,-45 45,-68 8,-23 11,-46 7,-69 -2,-15 -7,-28 -14,-39 -7,-11 -16,-20 -27,-27 -11,-7 -23,-12 -36,-14 -13,-2 -27,-2 -41,0 -3,0 -5,0 -7,0 -2,-1 -3,-2 -3,-3 0,-1 1,-3 3,-4 16,-10 28,-19 37,-27 9,-8 16,-16 21,-24 5,-7 7,-14 8,-21 1,-7 1,-13 0,-19 -2,-14 -8,-26 -18,-35 -9,-9 -22,-16 -38,-20 -16,-4 -34,-4 -54,-1 -19,3 -36,9 -51,17 -16,9 -29,20 -40,33 -11,14 -20,30 -26,48 0,2 2,5 4,6 2,2 4,3 7,4 3,1 6,0 8,-1 5,-10 11,-20 18,-29 7,-9 15,-16 23,-22 9,-6 18,-10 28,-11l0 0z"/>
 </g>
</svg>
